<svg xmlns="http://www.w3.org/2000/svg" width="48" height="48" viewBox="0 0 48 48">
  <g fill="none">
    <path fill="#2F8AE3" d="M23.60625,0 L24.37875,0 C28.03875,0.0684375 31.6875,0.9571875 34.9425,2.6409375 C39.7425,5.090625 43.6659375,9.2090625 45.8746875,14.1253125 C47.2284375,17.094375 47.9334375,20.345625 48,23.6053125 L48,24.3825 C47.9315625,28.02 47.053125,31.644375 45.39,34.8825 C43.775625,38.053125 41.4478125,40.8590625 38.6240625,43.02375 C35.574375,45.3796875 31.94625,46.9809375 28.1484375,47.638125 C26.91,47.863125 25.6528125,47.9578125 24.395625,48 L23.6165625,48 C19.175625,47.925 14.7590625,46.6078125 11.0296875,44.19 C6.144375,41.0653125 2.4590625,36.1125 0.90375,30.523125 C0.331875,28.5328125 0.0525,26.465625 0,24.3975 L0,23.6203125 C0.07125,19.6096875 1.1409375,15.6159375 3.140625,12.1340625 C5.07,8.739375 7.843125,5.83125 11.1403125,3.7396875 C14.8425,1.366875 19.2121875,0.0778125 23.60625,0 L23.60625,0 Z"/>
    <path fill="#FFF" d="M11.0557054,17.3522565 C12.9084008,16.0073349 15.3889586,15.7076332 17.579798,16.267187 C18.8630755,16.6075684 20.0186097,17.3124069 21.0480704,18.1301525 C22.0190865,18.9130297 22.8197782,19.8719089 23.6329937,20.8100333 C23.7440386,20.9420348 23.8676072,21.0632438 23.9978553,21.1786414 C24.6682989,20.5418791 25.2034849,19.7772663 25.8647444,19.1305417 C26.8791765,18.0770198 28.0839711,17.1986698 29.4265282,16.6050778 C30.9694669,15.957523 32.7194667,15.844616 34.3500724,16.1974504 C35.9606399,16.5461337 37.4392895,17.4784466 38.4136453,18.8042737 C39.5032205,20.2670834 39.9824666,22.1092939 40,23.9116549 C39.9966603,25.8036773 39.4422711,27.7230962 38.2975909,29.2481709 C37.4518133,30.3631275 36.2562028,31.2124205 34.9153156,31.6316708 C33.0091851,32.2310741 30.8784603,32.0949215 29.0666762,31.2522701 C27.4836611,30.5250162 26.1185611,29.3942858 24.9580174,28.1124593 C24.6390766,27.7820403 24.3451835,27.4275455 23.9995252,27.1245231 C23.324072,27.734719 22.7738574,28.4719353 22.0917249,29.07715 C20.6030562,30.4710533 18.7762435,31.6150668 16.7223315,31.9131081 C14.9681572,32.1621676 13.102938,31.8799001 11.5817073,30.9475872 C10.2491693,30.1481061 9.25227057,28.8662796 8.68118286,27.4375079 C7.92975167,25.593637 7.79866867,23.5139898 8.29461326,21.5887595 C8.69704641,19.9225511 9.64468463,18.3592873 11.0557054,17.3522565 Z M13.1346651,21.3355489 C12.5118121,21.9523864 12.1945411,22.816623 12.1294171,23.6767087 C12.0834963,24.5201904 12.207065,25.4018612 12.6671079,26.1291151 C13.1471889,26.9468606 14.0313729,27.5030936 14.9781762,27.6002268 C16.0694213,27.718115 17.1840443,27.4233946 18.1250031,26.8746333 C19.3757186,26.1980216 20.4010047,25.1860096 21.3336143,24.1308273 C21.1632899,23.8485598 20.9036287,23.6385196 20.6848787,23.3969318 C19.7940153,22.4488451 18.8346881,21.5339664 17.6816587,20.9063363 C17.0329231,20.5618039 16.3048698,20.3401409 15.5651275,20.3451221 C14.6659148,20.3376503 13.7625276,20.6913149 13.1346651,21.3355489 Z M30.3750014,20.8756189 C29.1985941,21.5024188 28.2217335,22.4289203 27.3183463,23.3927808 C27.0979264,23.636029 26.8365954,23.8468994 26.666271,24.1308273 C27.8802498,25.513938 29.3021246,26.8389348 31.0980452,27.4067906 C32.0807502,27.7006809 33.2003826,27.7521532 34.1313224,27.2631662 C34.976265,26.8339536 35.544848,25.9888115 35.7635979,25.0855556 C35.9531256,24.1698466 35.9255731,23.184401 35.5348289,22.3218247 C35.1724721,21.486645 34.4435838,20.817505 33.5744284,20.5310866 C32.5215898,20.1657992 31.3443476,20.3667073 30.3750014,20.8756189 Z"/>
  </g>
</svg>
