<svg xmlns="http://www.w3.org/2000/svg" width="48" height="48" viewBox="0 0 48 48">
  <g fill="#FFF">
    <circle cx="24" cy="24" r="24" fill-opacity=".1"/>
    <path d="M25.3611111,21.2777778 L29.1230969,21.2777778 C29.2734411,21.2777778 29.3953191,21.3996558 29.3953191,21.55 C29.3953191,21.5599962 29.1974795,22.7545435 28.8018004,25.1336419 C28.7799234,25.2649042 28.6663549,25.3611111 28.533282,25.3611111 L25.3611111,25.3611111 L25.3611111,34.6166666 C25.3611111,34.7670108 25.2392331,34.8888889 25.0888889,34.8888889 L21.55,34.8888889 C21.3996558,34.8888889 21.2777778,34.7670108 21.2777778,34.6166666 L21.2777778,25.3611111 L18.8277778,25.3611111 C18.6774336,25.3611111 18.5555556,25.2392331 18.5555556,25.0888889 L18.5555556,21.55 C18.5555556,21.3996558 18.6774336,21.2777778 18.8277778,21.2777778 L21.2777778,21.2777778 L21.2777778,17.5309662 C21.2777778,15.061655 23.2539998,13.1111111 25.7628849,13.1111111 L29.1722222,13.1111111 C29.3225664,13.1111111 29.4444444,13.2329892 29.4444444,13.3833334 L29.4444444,16.9222222 C29.4444444,17.0725664 29.3225664,17.1944444 29.1722222,17.1944444 L26.45,17.1944444 C25.8486233,17.1944444 25.3611111,17.6819566 25.3611111,18.2833333 L25.3611111,21.2777778 Z"/>
  </g>
</svg>
