<svg xmlns="http://www.w3.org/2000/svg" width="48" height="48" viewBox="0 0 48 48">
  <g fill="#FFF">
    <circle cx="24" cy="24" r="24" fill-opacity=".1"/>
    <path d="M29.946759,14.6128604 L18.0553156,14.6128604 C16.1562721,14.6128604 14.6130998,16.1560328 14.6130998,18.0550763 L14.6130998,29.9446844 C14.6130998,31.8437279 16.1561923,33.3890546 18.0553156,33.3890546 L29.9468388,33.3890546 C31.8437279,33.3890546 33.3891344,31.8437279 33.3891344,29.9446844 L33.3891344,18.0550763 C33.3891344,16.155953 31.8437279,14.6128604 29.946759,14.6128604 Z M23.9999601,30.1812669 C20.5924537,30.1812669 17.8187331,27.4074665 17.8187331,23.9999601 C17.8187331,20.5924537 20.5925335,17.8187331 23.9999601,17.8187331 C27.4096209,17.8187331 30.1811871,20.5924537 30.1811871,23.9999601 C30.1811871,27.4074665 27.4074665,30.1812669 23.9999601,30.1812669 Z M36,29.9446844 C36,33.2848466 33.2849263,36 29.9468388,36 L18.0553156,36 C14.7173078,36 12,33.2849263 12,29.9446844 L12,18.0550763 C12,14.7173078 14.7173078,12 18.0553156,12 L29.9468388,12 C33.2849263,12 36,14.7173078 36,18.0550763 L36,29.9446844 L36,29.9446844 Z M30.3809058,19.0968373 C29.5734932,19.0968373 28.9180838,18.4416672 28.9180838,17.6342546 C28.9180838,16.8287569 29.5734932,16.1714326 30.3809058,16.1714326 C31.1860843,16.1714326 31.8437279,16.8287569 31.8437279,17.6342546 C31.8437279,18.4416672 31.1860843,19.0968373 30.3809058,19.0968373 L30.3809058,19.0968373 Z M23.9999601,20.4319127 C22.0335724,20.4319127 20.4318329,22.0314978 20.4318329,23.9999601 C20.4318329,25.9685022 22.0335724,27.5702417 23.9999601,27.5702417 C25.9685022,27.5702417 27.5702417,25.9685022 27.5702417,23.9999601 C27.5702417,22.0335724 25.9685022,20.4319127 23.9999601,20.4319127 Z"/>
  </g>
</svg>
