<svg xmlns="http://www.w3.org/2000/svg" width="48" height="48" viewBox="0 0 48 48">
  <g fill="none">
    <circle cx="24" cy="24" r="24" fill="#2F8AE3"/>
    <path fill="#FFF" d="M34.2999957,33.7777778 L30.4281965,33.7777778 C30.2870589,33.7777778 30.1726456,33.6632829 30.1726456,33.5221452 L30.1726411,26.3972874 C30.1726411,24.5434534 29.540581,23.2774765 27.9523988,23.2774765 C26.7426313,23.2774765 26.0226974,24.1309018 25.7050903,24.9560049 C25.58861,25.2499719 25.5598566,25.6591463 25.5598566,26.0733865 L25.5598566,33.522222 C25.5598566,33.6633614 25.4454406,33.7777778 25.3043012,33.7777778 L21.4309673,33.7777778 C21.2898279,33.7777778 21.1754118,33.6633615 21.1754118,33.5222221 L21.1754118,20.2380689 C21.1754118,20.0969295 21.2898279,19.9825134 21.4309673,19.9825134 L25.3043012,19.9825134 C25.4454406,19.9825134 25.5598566,20.0969295 25.5598566,20.2380689 L25.5598566,21.9380462 C25.5519348,21.95309 25.5391718,21.9679035 25.5311033,21.9829472 L25.5598566,21.9380462 C26.1424786,20.9995778 27.1814865,19.6583054 29.5102139,19.6583054 C32.3944237,19.6583054 34.5555556,21.6307241 34.5555556,25.866228 L34.5555556,33.5222221 C34.5555556,33.6633615 34.4411397,33.7777778 34.3000003,33.7777778 L34.2999957,33.7777778 L34.2999957,33.7777778 Z M14.1111111,15.7166918 C14.1111111,14.3638296 15.091072,13.3333333 16.5914537,13.3333333 C18.0902218,13.3333333 19.0127493,14.3639064 19.0415027,15.7166918 C19.0415027,17.041155 18.0902218,18.0998199 16.56116,18.0998199 L16.5340204,18.0998199 C15.062392,18.0998199 14.1111111,17.0410782 14.1111111,15.7166918 Z M18.7525756,33.522222 C18.7525756,33.6633614 18.6381595,33.7777775 18.4970201,33.7777775 L14.6268403,33.7777775 C14.4857009,33.7777775 14.3712849,33.6633614 14.3712849,33.522222 L14.3712849,20.2380689 C14.3712849,20.0969295 14.4857009,19.9825134 14.6268403,19.9825134 L18.4970201,19.9825134 C18.6381595,19.9825134 18.7525756,20.0969295 18.7525756,20.2380689 L18.7525756,33.522222 Z"/>
  </g>
</svg>
