<svg xmlns="http://www.w3.org/2000/svg" width="48" height="48" viewBox="0 0 48 48">
  <g fill="#FFF">
    <circle cx="24" cy="24" r="24" fill-opacity=".1"/>
    <path d="M33.5380779,19.3158323 C33.5457433,19.5191777 33.5501236,19.721412 33.5501236,19.9258686 C33.5501236,26.1529059 28.9180003,33.3333333 20.4487705,33.3333333 C17.8501821,33.3333333 15.4257091,32.5532869 13.3888889,31.2176518 C13.746975,31.2598766 14.1050612,31.2809889 14.4773831,31.2809889 C16.6324703,31.2809889 18.5992063,30.5287219 20.1739093,29.2664246 C18.1600854,29.2275334 16.4200278,27.8652301 15.8341682,25.9928964 C16.1155998,26.0484553 16.3247571,26.0773459 16.6226147,26.0773459 C17.0431195,26.0773459 17.1482457,26.0195647 17.5380887,25.9128916 C15.4289943,25.4784213 13.3888889,23.5727523 13.3888889,21.2915054 C13.3888889,21.2692819 13.3888889,21.2492807 13.3888889,21.2303907 C14.4839535,21.5837451 15.1749393,21.7959799 15.9272487,21.8193146 C14.6931109,20.9737088 14.2649406,19.5325119 14.2649406,17.8979701 C14.2649406,17.0334742 14.5277561,16.2245372 14.9241695,15.5289402 C17.1931434,18.3779987 20.6053647,20.2547771 24.4315205,20.4525666 C24.3537709,20.1058793 24.3187289,19.7469691 24.3187289,19.3780582 C24.3187289,16.7756811 26.3873059,14.6666667 28.9289509,14.6666667 C30.251789,14.6666667 31.4497897,15.2378118 32.2907993,16.154533 C33.3387761,15.9434093 34.3254294,15.5511638 35.2135268,15.0122428 C34.8707715,16.1111971 34.1414585,17.0345854 33.1909424,17.6190646 C34.1228424,17.5046134 35.0098447,17.251265 35.8333333,16.875687 C35.217907,17.8201877 34.4371259,18.6502371 33.5380779,19.3158323 Z"/>
  </g>
</svg>
