<svg xmlns="http://www.w3.org/2000/svg" width="32" height="32" viewBox="0 0 32 32">
  <g fill="#343440" fill-rule="evenodd">
    <path fill-rule="nonzero" d="M16,32 C24.836556,32 32,24.836556 32,16 C32,7.163444 24.836556,0 16,0 C7.163444,0 0,7.163444 0,16 C0,24.836556 7.163444,32 16,32 Z M16,30 C8.2680135,30 2,23.7319865 2,16 C2,8.2680135 8.2680135,2 16,2 C23.7319865,2 30,8.2680135 30,16 C30,23.7319865 23.7319865,30 16,30 Z" opacity=".1"/>
    <path fill-rule="nonzero" d="M13,16.5857864 L16.2928932,13.2928932 C16.6834175,12.9023689 17.3165825,12.9023689 17.7071068,13.2928932 C18.0976311,13.6834175 18.0976311,14.3165825 17.7071068,14.7071068 L12.7071068,19.7071068 C12.3165825,20.0976311 11.6834175,20.0976311 11.2928932,19.7071068 L6.29289322,14.7071068 C5.90236893,14.3165825 5.90236893,13.6834175 6.29289322,13.2928932 C6.68341751,12.9023689 7.31658249,12.9023689 7.70710678,13.2928932 L11,16.5857864 L11,5 C11,4.44771525 11.4477153,4 12,4 C12.5522847,4 13,4.44771525 13,5 L13,16.5857864 Z" opacity=".4" transform="translate(4 4)"/>
  </g>
</svg>
