<svg xmlns="http://www.w3.org/2000/svg" width="36" height="46" viewBox="0 0 36 46">
  <path fill="#2F8AE3" d="M11,34.1284954 L11,43.2901525 L17.5097388,39.6284245 C17.8141523,39.4571918 18.1858477,39.4571918 18.4902612,39.6284245 L25,43.2901525 L25,34.1282265 C24.6533227,34.1290638 24.3007972,34.0848053 23.9497935,33.9911893 L22.1676029,33.5141309 C22.1605335,33.5122386 22.1529916,33.5142595 22.1478155,33.5194329 L20.8416386,34.8249549 C19.2712806,36.3916817 16.7287194,36.3916817 15.1570776,34.8236729 L13.8521845,33.5194329 C13.8470084,33.5142595 13.8394665,33.5122386 13.8323971,33.5141309 L12.0484538,33.9916576 C11.6980836,34.0851045 11.3461477,34.129304 11,34.1284954 L11,34.1284954 Z M9,33.5882722 C8.10943979,33.073942 7.41466558,32.2201687 7.12612058,31.1482669 L6.64816996,29.3663154 C6.64627408,29.359247 6.64075297,29.3537259 6.63368455,29.35183 L4.84998096,28.8734086 C2.70797671,28.2968021 1.43669613,26.0948796 2.00881073,23.9497935 L2.48586908,22.1676029 C2.48776142,22.1605335 2.48574055,22.1529916 2.48056706,22.1478155 L1.17504514,20.8416386 C-0.391681714,19.2712806 -0.391681714,16.7287194 1.17632712,15.1570776 L2.48056706,13.8521845 C2.48574055,13.8470084 2.48776142,13.8394665 2.48586908,13.8323971 L2.00834239,12.0484538 C1.43669613,9.90512042 2.70797671,7.70319786 4.85173308,7.12612058 L6.63368455,6.64816996 C6.64075297,6.64627408 6.64627408,6.64075297 6.64816996,6.63368455 L7.12659139,4.84998096 C7.70319786,2.70797671 9.90512042,1.43669613 12.0502065,2.00881073 L13.8323971,2.48586908 C13.8394665,2.48776142 13.8470084,2.48574055 13.8521845,2.48056706 L15.1583614,1.17504514 C16.7287194,-0.391681714 19.2712806,-0.391681714 20.8429224,1.17632712 L22.1478155,2.48056706 C22.1529916,2.48574055 22.1605335,2.48776142 22.1676029,2.48586908 L23.9515462,2.00834239 C26.0948796,1.43669613 28.2968021,2.70797671 28.8738794,4.85173308 L29.35183,6.63368455 C29.3537259,6.64075297 29.359247,6.64627408 29.3663154,6.64816996 L31.150019,7.12659139 C33.2920233,7.70319786 34.5633039,9.90512042 33.9911893,12.0502065 L33.5141309,13.8323971 C33.5122386,13.8394665 33.5142595,13.8470084 33.5194329,13.8521845 L34.8249549,15.1583614 C36.3916817,16.7287194 36.3916817,19.2712806 34.8236729,20.8429224 L33.5194329,22.1478155 C33.5142595,22.1529916 33.5122386,22.1605335 33.5141309,22.1676029 L33.9916576,23.9515462 C34.5633039,26.0948796 33.2920233,28.2968021 31.1482669,28.8738794 L29.3663154,29.35183 C29.359247,29.3537259 29.3537259,29.359247 29.35183,29.3663154 L28.8734086,31.150019 C28.585129,32.2209333 27.890587,33.0742024 27,33.5882723 L27,45 C27,45.7648265 26.1763428,46.2465403 25.5097388,45.8715755 L18,41.6473475 L10.4902612,45.8715755 C9.82365719,46.2465403 9,45.7648265 9,45 L9,33.5882722 L9,33.5882722 Z M13.3152427,31.5821497 C14.0121968,31.3955884 14.7557446,31.5948215 15.266044,32.1048654 L16.5709371,33.4091053 C17.3606227,34.1969649 18.6393773,34.1969649 19.4290629,33.4091053 L20.733956,32.1048654 C21.2442554,31.5948215 21.9878032,31.3955884 22.6847573,31.5821497 L24.4669479,32.0592081 C25.5447655,32.3466717 26.6521994,31.7072944 26.9421574,30.6301452 L27.420108,28.8481937 C27.6070183,28.1513331 28.1513331,27.6070183 28.8481937,27.420108 L30.6301452,26.9421574 C31.7072944,26.6521994 32.3466717,25.5447655 32.0592081,24.4669479 L31.5821497,22.6847573 C31.3955884,21.9878032 31.5948215,21.2442554 32.1048654,20.733956 L33.4091053,19.4290629 C34.1969649,18.6393773 34.1969649,17.3606227 33.4091053,16.5709371 L32.1048654,15.266044 C31.5948215,14.7557446 31.3955884,14.0121968 31.5821497,13.3152427 L32.0592081,11.5330521 C32.3466717,10.4552345 31.7072944,9.34780056 30.6301452,9.05784259 L28.8481937,8.57989196 C28.1513331,8.39298171 27.6070183,7.84866695 27.420108,7.15180626 L26.9421574,5.36985479 C26.6521994,4.29270559 25.5447655,3.65332828 24.4669479,3.94079191 L22.6847573,4.41785026 C21.9878032,4.60441158 21.2442554,4.40517855 20.733956,3.89513462 L19.4290629,2.59089469 C18.6393773,1.8030351 17.3606227,1.8030351 16.5709371,2.59089469 L15.266044,3.89513462 C14.7557446,4.40517855 14.0121968,4.60441158 13.3152427,4.41785026 L11.5330521,3.94079191 C10.4552345,3.65332828 9.34780056,4.29270559 9.05784259,5.36985479 L8.57989196,7.15180626 C8.39298171,7.84866695 7.84866695,8.39298171 7.15180626,8.57989196 L5.36985479,9.05784259 C4.29270559,9.34780056 3.65332828,10.4552345 3.94079191,11.5330521 L4.41785026,13.3152427 C4.60441158,14.0121968 4.40517855,14.7557446 3.89513462,15.266044 L2.59089469,16.5709371 C1.8030351,17.3606227 1.8030351,18.6393773 2.59089469,19.4290629 L3.89513462,20.733956 C4.40517855,21.2442554 4.60441158,21.9878032 4.41785026,22.6847573 L3.94079191,24.4669479 C3.65332828,25.5447655 4.29270559,26.6521994 5.36985479,26.9421574 L7.15180626,27.420108 C7.84866695,27.6070183 8.39298171,28.1513331 8.57989196,28.8481937 L9.05784259,30.6301452 C9.34780056,31.7072944 10.4552345,32.3466717 11.5330521,32.0592081 L13.3152427,31.5821497 Z M18.0740741,29.5 C11.6786211,29.5 6.49259259,24.352104 6.49259259,18 C6.49259259,11.647896 11.6786211,6.5 18.0740741,6.5 C24.469527,6.5 29.6555556,11.647896 29.6555556,18 C29.6555556,24.352104 24.469527,29.5 18.0740741,29.5 Z M18.0740741,28.5 C23.9188876,28.5 28.6555556,23.7981605 28.6555556,18 C28.6555556,12.2018395 23.9188876,7.5 18.0740741,7.5 C12.2292606,7.5 7.49259259,12.2018395 7.49259259,18 C7.49259259,23.7981605 12.2292606,28.5 18.0740741,28.5 Z M13.7044927,18.0104796 L16.4594595,20.7451892 L22.9621739,14.2902888 C23.3541366,13.9012082 23.9872973,13.9035446 24.3763779,14.2955073 C24.7654585,14.6874699 24.7631221,15.3206306 24.3711594,15.7097112 L17.1639522,22.8639242 C16.7740334,23.250976 16.1448855,23.250976 15.7549667,22.8639242 L12.2955073,19.429902 C11.9035446,19.0408214 11.9012082,18.4076607 12.2902888,18.015698 C12.6793694,17.6237354 13.3125301,17.621399 13.7044927,18.0104796 Z"/>
</svg>
